<?xml version="1.0" encoding="iso-8859-1"?>
<!-- Generator: Adobe Illustrator 17.1.0, SVG Export Plug-In . SVG Version: 6.00 Build 0)  -->
<!DOCTYPE svg PUBLIC "-//W3C//DTD SVG 1.1//EN" "http://www.w3.org/Graphics/SVG/1.1/DTD/svg11.dtd">
<svg version="1.1" id="Capa_1" xmlns="http://www.w3.org/2000/svg" xmlns:xlink="http://www.w3.org/1999/xlink" x="0px" y="0px"
	 viewBox="0 0 362.001 362.001" style="enable-background:new 0 0 362.001 362.001;" xml:space="preserve">
<path d="M181.001,0C81.197,0,0,81.196,0,181.001c0,99.804,81.196,181,181,181c99.804,0,181-81.196,181-181
	C362.001,81.196,280.804,0,181.001,0z M308.739,195.717c-6.299,4.202-14.609,2.989-19.504-2.51
	c-6.126,55.823-53.56,99.401-110.987,99.401c-61.572,0-111.664-50.092-111.664-111.664c0-61.571,50.092-111.663,111.664-111.663
	c8.285,0,15,6.716,15,15s-6.716,15-15,15c-45.03,0-81.664,36.634-81.664,81.663s36.634,81.664,81.664,81.664
	c40.21,0,73.7-29.22,80.415-67.535c-2.652,2.051-5.885,3.155-9.176,3.155c-2.859,0-5.751-0.816-8.309-2.522
	c-6.893-4.596-8.754-13.909-4.157-20.802l22.685-33.971c3.505-5.255,9.206-8.346,15.25-8.346c0.001,0,0.002,0,0.003,0
	c6.045,0,11.745,3.088,15.251,8.342l22.687,33.998C317.493,181.819,315.631,191.121,308.739,195.717z"/>
<g>
</g>
<g>
</g>
<g>
</g>
<g>
</g>
<g>
</g>
<g>
</g>
<g>
</g>
<g>
</g>
<g>
</g>
<g>
</g>
<g>
</g>
<g>
</g>
<g>
</g>
<g>
</g>
<g>
</g>
</svg>
